<svg width="112" height="112" viewBox="0 0 112 112" xmlns="http://www.w3.org/2000/svg">
<path d="M87.1693 57.3277C87.1693 59.3321 85.5622 60.7003 83.6693 60.8277L40.8106 60.8249L63.0379 82.9613C64.4076 84.3252 64.4124 86.5413 63.0485 87.9111C61.8086 89.1563 59.8644 89.2735 58.4921 88.2598L58.0988 87.9217L29.8655 59.8097C29.6849 59.63 29.5281 59.4354 29.395 59.2299C29.3574 59.1681 29.3191 59.1048 29.2828 59.0403C29.2495 58.9849 29.2193 58.9275 29.1909 58.8694C29.1514 58.7849 29.1127 58.6976 29.0777 58.6085C29.0492 58.5398 29.0254 58.473 29.0037 58.4056C28.978 58.3221 28.9529 58.2332 28.9314 58.1428C28.9153 58.0797 28.9026 58.019 28.8916 57.9581C28.876 57.8674 28.8628 57.7736 28.8533 57.6786C28.8452 57.6062 28.8402 57.5344 28.8375 57.4626C28.8368 57.4191 28.8359 57.3735 28.8359 57.3277L28.8377 57.1921C28.8404 57.1234 28.8451 57.0548 28.8518 56.9863L28.8359 57.3277C28.8359 57.1068 28.8564 56.8907 28.8955 56.6812C28.9046 56.6312 28.9154 56.5798 28.9274 56.5286C28.9522 56.4233 28.981 56.3218 29.0141 56.2223C29.0303 56.1729 29.0492 56.1201 29.0694 56.0677C29.1103 55.9624 29.1548 55.862 29.2037 55.7642C29.2264 55.7182 29.2519 55.6701 29.2785 55.6224C29.3222 55.5447 29.3673 55.4708 29.4149 55.3988C29.4486 55.3479 29.4858 55.2948 29.5247 55.2426L29.5549 55.2023C29.6492 55.0791 29.7515 54.9623 29.8611 54.8528L29.8653 54.8496L58.0986 26.7329C59.4683 25.3689 61.6843 25.3735 63.0483 26.7431C64.2883 27.9883 64.3973 29.933 63.3778 31.301L63.0381 31.6929L40.8199 53.8249L83.6758 53.8277C85.6088 53.8277 87.1693 55.3947 87.1693 57.3277Z"/>
</svg>
