<svg width="56" height="56" viewBox="0 0 56 56" xmlns="http://www.w3.org/2000/svg">
<path d="M14.418 28.6634C14.418 27.6612 15.2215 26.9771 16.168 26.9134L37.5973 26.9148L26.4837 15.8465C25.7988 15.1646 25.7964 14.0566 26.4783 13.3717C27.0983 12.7491 28.0704 12.6905 28.7566 13.1973L28.9532 13.3663L43.0699 27.4223C43.1602 27.5122 43.2386 27.6095 43.3051 27.7123C43.3239 27.7432 43.343 27.7748 43.3612 27.8071C43.3779 27.8348 43.393 27.8635 43.4072 27.8925C43.4269 27.9348 43.4462 27.9784 43.4638 28.023C43.478 28.0573 43.4899 28.0907 43.5007 28.1244C43.5136 28.1661 43.5262 28.2106 43.5369 28.2558C43.5449 28.2873 43.5513 28.3177 43.5568 28.3482C43.5646 28.3935 43.5712 28.4404 43.576 28.4879C43.58 28.5241 43.5825 28.56 43.5838 28.5959C43.5842 28.6177 43.5846 28.6405 43.5846 28.6634L43.5838 28.7312C43.5824 28.7655 43.5801 28.7998 43.5767 28.8341L43.5846 28.6634C43.5846 28.7738 43.5744 28.8819 43.5548 28.9866C43.5503 29.0116 43.5449 29.0373 43.5389 29.0629C43.5265 29.1156 43.5121 29.1663 43.4956 29.216C43.4875 29.2408 43.478 29.2672 43.4679 29.2934C43.4474 29.346 43.4252 29.3962 43.4008 29.4451C43.3894 29.4681 43.3767 29.4922 43.3634 29.516C43.3415 29.5549 43.319 29.5918 43.2951 29.6278C43.2783 29.6533 43.2597 29.6798 43.2403 29.7059L43.2251 29.7261C43.178 29.7877 43.1268 29.8461 43.0721 29.9008L43.07 29.9024L28.9533 43.9608C28.2685 44.6428 27.1604 44.6405 26.4784 43.9556C25.8584 43.3331 25.804 42.3607 26.3137 41.6767L26.4836 41.4808L37.5926 30.4148L16.1647 30.4134C15.1982 30.4134 14.418 29.6299 14.418 28.6634Z"/>
</svg>
