<svg width="25" height="25" viewBox="0 0 25 25" fill="none" xmlns="http://www.w3.org/2000/svg">
<path d="M4.73054 20.2784C4.54301 20.0909 4.43765 19.8365 4.43765 19.5713C4.43765 19.3061 4.54301 19.0517 4.73054 18.8642L18.8727 4.72205C19.0602 4.53451 19.3166 4.42711 19.5818 4.42711C19.847 4.42711 20.0994 4.53451 20.2869 4.72205C20.4744 4.90958 20.5818 5.16189 20.5818 5.42711C20.5818 5.69232 20.4744 5.94872 20.2869 6.13626L6.14476 20.2784C5.95722 20.4659 5.70287 20.5713 5.43765 20.5713C5.17243 20.5713 4.91808 20.4659 4.73054 20.2784Z" fill="url(#paint0_linear_1210_5725)"/>
<path d="M20.2891 20.2782C20.1016 20.4658 19.8472 20.5711 19.582 20.5711C19.3168 20.5711 19.0625 20.4658 18.8749 20.2782L4.73279 6.13611C4.54525 5.94857 4.43785 5.69217 4.43785 5.42696C4.43785 5.16174 4.54525 4.90943 4.73279 4.7219C4.92033 4.53436 5.17263 4.42696 5.43785 4.42696C5.70307 4.42696 5.95947 4.53436 6.147 4.7219L20.2891 18.864C20.4767 19.0516 20.582 19.3059 20.582 19.5711C20.582 19.8364 20.4767 20.0907 20.2891 20.2782Z" fill="url(#paint1_linear_1210_5725)"/>
<defs>
<linearGradient id="paint0_linear_1210_5725" x1="-2.73012" y1="25.1547" x2="17.2381" y2="33.0364" gradientUnits="userSpaceOnUse">
<stop stop-color="#DABE83"/>
<stop offset="1" stop-color="#C9792F"/>
</linearGradient>
<linearGradient id="paint1_linear_1210_5725" x1="25.1655" y1="27.7389" x2="33.0471" y2="7.77069" gradientUnits="userSpaceOnUse">
<stop stop-color="#DABE83"/>
<stop offset="1" stop-color="#C9792F"/>
</linearGradient>
</defs>
</svg>
